<?xml version="1.0" encoding="utf-8"?>
<!-- Generator: Adobe Illustrator 24.1.0, SVG Export Plug-In . SVG Version: 6.00 Build 0)  -->
<svg version="1.1" id="Layer_1" xmlns="http://www.w3.org/2000/svg" xmlns:xlink="http://www.w3.org/1999/xlink" x="0px" y="0px"
	 viewBox="0 0 79.5 79.5" style="enable-background:new 0 0 79.5 79.5;" xml:space="preserve">
<style type="text/css">
	.st0{opacity:0.21;fill:#6D6D6D;}
	.st1{clip-path:url(#SVGID_2_);}
	.st2{fill:#C1694F;}
	.st3{clip-path:url(#SVGID_4_);}
	.st4{fill:#662113;}
	.st5{clip-path:url(#SVGID_6_);}
	.st6{clip-path:url(#SVGID_8_);}
	.st7{clip-path:url(#SVGID_10_);}
	.st8{fill:#BE1931;}
	.st9{fill:#A0041E;}
	.st10{fill:#FFFFFF;}
</style>
<path class="st0" d="M73.8,23.3c3.3,10.9-6.5,24.4-14.8,34.3c-8.3,9.9-15,16.2-23.5,17.2c-8.5,1-18.8-3.3-24.7-11.8
	C5,54.6,3.6,41.9,8.7,29.9C13.9,18,25.6,6.9,39.8,5.5S70.4,12.4,73.8,23.3z"/>
<g transform="matrix(1.25 0 0 -1.25 0 47.5)">
	<g>
		<defs>
			<rect id="SVGID_1_" x="8.1" y="-17.5" width="47.5" height="47.5"/>
		</defs>
		<clipPath id="SVGID_2_">
			<use xlink:href="#SVGID_1_"  style="overflow:visible;"/>
		</clipPath>
		<g class="st1">
			<path class="st2" d="M24.7-3.8c0.6,0,1.3,0.5,1,1c-14.2,20.9-2.6,25.1-2.6,25.1c0.4,0.2,0.6,0.7,0.5,1.1c-0.1,0.4-0.5,0.8-1,0.8
				h-4.1c-3.8,0-9.1-11,1-28c0.2-0.3,0.8-0.8,1-1c0.2-0.2-0.3,1,0,1H24.7z"/>
		</g>
	</g>
	<g>
		<defs>
			<path id="SVGID_3_" d="M18.6,24.2c-3.8,0-9.1-11,1-28l0,0c0.2-0.3,0.8-0.8,1-1l0,0c0.2-0.2-0.3,1,0,1l0,0h4.1c0.6,0,1.3,0.5,1,1
				l0,0c-14.2,20.9-2.6,25.1-2.6,25.1l0,0c0.4,0.2,0.6,0.7,0.5,1.1l0,0c-0.1,0.4-0.5,0.8-1,0.8l0,0H18.6z"/>
		</defs>
		<clipPath id="SVGID_4_">
			<use xlink:href="#SVGID_3_"  style="overflow:visible;"/>
		</clipPath>
		<g class="st3">
			<path class="st4" d="M26.8-5.8c0.6,0,1.3,0.5,1,1c-14.2,20.9-2.6,25.1-2.6,25.1c0.4,0.2,0.6,0.7,0.5,1.1c-0.1,0.4-0.5,0.8-1,0.8
				h-6.1c-3.8,0-8.1-11,2-26.8c0.2-0.2,0-0.6,0.2-0.8c0.2-0.2,0.5-0.4,0.8-0.4H26.8z"/>
		</g>
	</g>
	<g>
		<defs>
			<rect id="SVGID_5_" x="8.1" y="-17.5" width="47.5" height="47.5"/>
		</defs>
		<clipPath id="SVGID_6_">
			<use xlink:href="#SVGID_5_"  style="overflow:visible;"/>
		</clipPath>
		<g class="st5">
			<path class="st2" d="M23.7,16.2c-0.6,0-1,0.4-1,1c0,3.3-2,5-4.1,5c-0.5,0-0.1,0.8,0,1.2c0.1,0.5,0.5,0.8,1,0.8h5.1
				c3.8,0,4.9-6.1,5.1-6.8c0-0.3,0-0.6-0.2-0.8c-0.2-0.2-0.5-0.4-0.8-0.4H23.7z"/>
			<path class="st2" d="M39-3.8c-0.6,0-1.3,0.5-1,1c14,20.9,2.6,25.1,2.6,25.1c-0.4,0.2-0.6,0.7-0.5,1.1c0.1,0.4,0.5,0.8,1,0.8h4
				c3.7,0,9-11-1-28c-0.1-0.3-0.8-0.8-1-1c-0.2-0.2,0.3,1,0,1H39z"/>
		</g>
	</g>
	<g>
		<defs>
			<path id="SVGID_7_" d="M41,24.2c-0.5,0-0.9-0.3-1-0.8l0,0c-0.1-0.5,0.1-0.9,0.5-1.1l0,0c0,0,11.5-4.2-2.6-25.1l0,0
				c-0.3-0.5,0.4-1,1-1l0,0h4c0.3,0-0.2-1.2,0-1l0,0c0.2,0.2,0.9,0.7,1,1l0,0c10,17,4.7,28,1,28l0,0H41z"/>
		</defs>
		<clipPath id="SVGID_8_">
			<use xlink:href="#SVGID_7_"  style="overflow:visible;"/>
		</clipPath>
		<g class="st6">
			<path class="st4" d="M37-5.8c-0.6,0-1.3,0.5-1,1c14,20.9,2.6,25.1,2.6,25.1c-0.4,0.2-0.6,0.7-0.5,1.1c0.1,0.4,0.5,0.8,1,0.8h6
				c3.7,0,8-11-2-26.8c-0.2-0.2,0-0.6-0.2-0.8c-0.2-0.2-0.5-0.4-0.8-0.4H37z"/>
		</g>
	</g>
	<g>
		<defs>
			<rect id="SVGID_9_" x="8.1" y="-17.5" width="47.5" height="47.5"/>
		</defs>
		<clipPath id="SVGID_10_">
			<use xlink:href="#SVGID_9_"  style="overflow:visible;"/>
		</clipPath>
		<g class="st7">
			<path class="st2" d="M40,16.2c0.6,0,1,0.4,1,1c0,3.3,2,5,4,5c0.5,0,0.1,0.8,0,1.2c-0.1,0.5-0.5,0.8-1,0.8h-5
				c-3.7,0-4.9-6.1-5-6.8c0-0.3,0-0.6,0.2-0.8c0.2-0.2,0.5-0.4,0.8-0.4H40z"/>
			<path class="st8" d="M19.8-7.8c0,0,0-4,4-4h16c0,0,4,0,4,4v22c0,0,0,4-4,4h-16c-4,0-4-4-4-4V-7.8z"/>
			<path class="st9" d="M37.8-3.8h-12c-2.2,0-3,1.8-3,3v14c0,0.6,0.4,1,1,1s1-0.4,1-1v-14c0-0.4,0.2-1,1-1h12c0.5,0,1,0.2,1,1v14
				c0,0.6,0.4,1,1,1c0.6,0,1-0.4,1-1v-14C40.8-3,39-3.8,37.8-3.8"/>
			<path class="st10" d="M29.8-0.8c0,0,0,1,1,1h2c0,0,1,0,1-1v-5c0,0,0-1-1-1h-2c0,0-1,0-1,1V-0.8z"/>
		</g>
	</g>
</g>
</svg>
