<svg xmlns:xlink="http://www.w3.org/1999/xlink" id="bk" class="" xmlns="http://www.w3.org/2000/svg" x="0" y="0" viewBox="0 0 1920 1195" xml:space="preserve" width="1920"  height="1195" ><style></style><path d="M1434.11 191.75c-39.2 32.4-117.28 5.86-172.14-8.59-55.79-14.7-56.35 32.16-91.9 19.66-35.55-12.5-27.58-60.65-97.82-37.86s-86.13-99.18-12.35-119.28c73.77-20.11 35.16-75.77 99-79.42 63.84-3.66 87.26 98.79 137.18 20.59 24.04-37.66 96.87 12.46 128.97 57.2 33.7 46.97 40.94 121.34 9.06 147.7z" class="fill-yellow-300 dark:fill-cyan-900 smooth" id="bottom1" style="transform: translateX(-200px); opacity: 0.5; fill-rule: evenodd; clip-rule: evenodd; transition: all 0.4s ease-in-out 0s;" fill="#FDE047"></path><path d="M432.01-131.45c186.53-61.3 248.19 233.07 61.94 233.07-109.64 0-213.06 39.41-150.58 129.7 62.5 90.29-389.09 32.09-292.12-187.27 37.2-84.15 30.03-216.86 152.52-162.28 122.5 54.58 127.75 19.8 228.24-13.22z" class="fill-blue-100 dark:fill-rose-900 smooth" id="top" style="fill-rule: evenodd; clip-rule: evenodd; transition: all 0.4s ease-in-out 0s;" fill="#DBEAFE"></path></svg>